<svg xmlns="http://www.w3.org/2000/svg" xmlns:xlink="http://www.w3.org/1999/xlink" width="500" zoomAndPan="magnify" viewBox="0 0 375 374.999991" height="500" preserveAspectRatio="xMidYMid meet" version="1.0"><defs><clipPath id="cd3ac3bc65"><path d="M 44.132812 232 L 149 232 L 149 259 L 44.132812 259 Z M 44.132812 232 " clip-rule="nonzero"/></clipPath><clipPath id="e5a9332b95"><path d="M 44.132812 227 L 154 227 L 154 263 L 44.132812 263 Z M 44.132812 227 " clip-rule="nonzero"/></clipPath><clipPath id="3281761980"><path d="M 221 227 L 330.632812 227 L 330.632812 263 L 221 263 Z M 221 227 " clip-rule="nonzero"/></clipPath><clipPath id="b53f3e9bba"><path d="M 112 109 L 262 109 L 262 321.265625 L 112 321.265625 Z M 112 109 " clip-rule="nonzero"/></clipPath><clipPath id="1074b55b5e"><path d="M 107 104 L 267 104 L 267 321.265625 L 107 321.265625 Z M 107 104 " clip-rule="nonzero"/></clipPath><clipPath id="45193fd8fa"><path d="M 84 53.515625 L 291 53.515625 L 291 112 L 84 112 Z M 84 53.515625 " clip-rule="nonzero"/></clipPath><clipPath id="5ff680a182"><path d="M 79 53.515625 L 295 53.515625 L 295 117 L 79 117 Z M 79 53.515625 " clip-rule="nonzero"/></clipPath></defs><g clip-path="url(#cd3ac3bc65)"><path fill="#ff4f61" d="M 44.609375 232.644531 L 148.367188 232.644531 C 139.011719 241.941406 128.949219 251.40625 115.933594 255.269531 C 99.921875 260.019531 82.027344 259.253906 67.171875 251.273438 C 58.535156 246.632812 49.878906 241.128906 44.613281 232.644531 Z M 44.609375 232.644531 " fill-opacity="1" fill-rule="nonzero"/></g><g clip-path="url(#e5a9332b95)"><path stroke-linecap="butt" transform="matrix(0.844503, 0, 0, 0.844503, 43.765161, 53.938763)" fill="none" stroke-linejoin="miter" d="M 0.999658 211.610484 L 123.862177 211.610484 C 112.784106 222.619173 100.868819 233.826759 85.456654 238.401378 C 66.496731 244.025985 45.307318 243.119387 27.716543 233.669492 C 17.489563 228.174398 7.239456 221.657069 1.004283 211.610484 Z M 0.999658 211.610484 " stroke="#000000" stroke-width="1" stroke-opacity="1" stroke-miterlimit="4"/></g><path fill="#ff4f61" d="M 225.933594 232.644531 L 329.6875 232.644531 C 320.332031 241.941406 310.269531 251.40625 297.257812 255.269531 C 281.246094 260.019531 263.351562 259.253906 248.496094 251.273438 C 239.859375 246.632812 231.199219 241.128906 225.933594 232.644531 Z M 225.933594 232.644531 " fill-opacity="1" fill-rule="nonzero"/><g clip-path="url(#3281761980)"><path stroke-linecap="butt" transform="matrix(0.844503, 0, 0, 0.844503, 43.765161, 53.938763)" fill="none" stroke-linejoin="miter" d="M 215.710722 211.610484 L 338.568616 211.610484 C 327.490544 222.619173 315.575257 233.826759 300.167718 238.401378 C 281.207796 244.025985 260.018382 243.119387 242.427607 233.669492 C 232.200628 228.174398 221.945895 221.657069 215.710722 211.610484 Z M 215.710722 211.610484 " stroke="#000000" stroke-width="1" stroke-opacity="1" stroke-miterlimit="4"/></g><g clip-path="url(#b53f3e9bba)"><path fill="#ff4f61" d="M 112.5 321.011719 L 261.800781 321.011719 C 261.800781 321.011719 210.6875 311.882812 196.351562 292.964844 C 191.699219 286.820312 196.976562 277.679688 196.714844 270.042969 L 191.226562 109.761719 L 183.683594 109.761719 L 178.195312 270.042969 C 177.933594 277.675781 182.964844 286.84375 178.257812 292.964844 C 163.730469 311.851562 112.503906 321.011719 112.503906 321.011719 Z M 112.5 321.011719 " fill-opacity="1" fill-rule="nonzero"/></g><g clip-path="url(#1074b55b5e)"><path stroke-linecap="butt" transform="matrix(0.844503, 0, 0, 0.844503, 43.765161, 53.938763)" fill="none" stroke-linejoin="miter" d="M 81.39084 316.248535 L 258.182059 316.248535 C 258.182059 316.248535 197.657397 305.438743 180.681814 283.037448 C 175.172844 275.761538 181.421894 264.937869 181.111985 255.895017 L 174.613158 66.101519 L 165.681319 66.101519 L 159.182492 255.895017 C 158.872583 264.933243 164.830227 275.789291 159.2565 283.037448 C 142.054267 305.401739 81.395465 316.248535 81.395465 316.248535 Z M 81.39084 316.248535 " stroke="#000000" stroke-width="1" stroke-opacity="1" stroke-miterlimit="4"/></g><g clip-path="url(#45193fd8fa)"><path fill="#ff4f61" d="M 288.890625 111.394531 L 85.398438 111.394531 L 84.191406 99.632812 C 84.121094 98.945312 84.289062 98.042969 84.871094 97.671875 C 85.46875 97.292969 86.277344 97.9375 86.984375 97.898438 C 112.292969 97.054688 135.9375 80.238281 161.554688 84.550781 C 167.664062 85.582031 172.933594 87.816406 177.390625 92.089844 C 177.941406 92.648438 179.050781 93.75 179.050781 93.75 C 181.363281 96.0625 182.269531 92.808594 183.269531 89.828125 C 185.234375 83.371094 186.722656 53.9375 187.144531 53.9375 C 187.566406 53.9375 189.054688 83.371094 191.015625 89.828125 C 192.019531 92.808594 192.925781 96.0625 195.238281 93.75 C 195.238281 93.75 196.347656 92.648438 196.898438 92.089844 C 201.066406 87.441406 206.753906 85.335938 212.734375 84.550781 C 238.011719 81.230469 262.398438 94.449219 287.304688 97.898438 C 288.011719 97.9375 288.820312 97.292969 289.417969 97.671875 C 290 98.042969 290.167969 98.945312 290.097656 99.632812 Z M 288.890625 111.394531 " fill-opacity="1" fill-rule="nonzero"/></g><g clip-path="url(#5ff680a182)"><path stroke-linecap="butt" transform="matrix(0.844503, 0, 0, 0.844503, 43.765161, 53.938763)" fill="none" stroke-linejoin="miter" d="M 290.259898 68.034978 L 49.299124 68.034978 L 47.869845 54.107599 C 47.786586 53.293511 47.985482 52.22502 48.674682 51.785598 C 49.382383 51.336924 50.339861 52.100132 51.177077 52.053877 C 81.145688 51.054769 109.143837 31.141993 139.477863 36.248545 C 146.712145 37.469677 152.951944 40.115462 158.229639 45.175759 C 158.881834 45.837205 160.195476 47.141596 160.195476 47.141596 C 162.933772 49.879892 164.006888 46.026851 165.191016 42.497595 C 167.517642 34.851644 169.279957 -0.00149539 169.779511 -0.00149539 C 170.279065 -0.00149539 172.04138 34.851644 174.363381 42.497595 C 175.552135 46.026851 176.62525 49.879892 179.363546 47.141596 C 179.363546 47.141596 180.677188 45.837205 181.329384 45.175759 C 186.264792 39.671414 192.999519 37.17827 200.081159 36.248545 C 230.012766 32.31687 258.88976 47.969561 288.381945 52.053877 C 289.219161 52.100132 290.176639 51.336924 290.884341 51.785598 C 291.57354 52.22502 291.772437 53.293511 291.689178 54.107599 Z M 290.259898 68.034978 " stroke="#000000" stroke-width="1" stroke-opacity="1" stroke-miterlimit="4"/></g><path stroke-linecap="butt" transform="matrix(0.844503, 0, 0, 0.844503, 43.765161, 53.938763)" fill="none" stroke-linejoin="miter" d="M 67.930636 59.251154 L 8.927764 212.748357 " stroke="#000000" stroke-width="1" stroke-opacity="1" stroke-miterlimit="4"/><path stroke-linecap="butt" transform="matrix(0.844503, 0, 0, 0.844503, 43.765161, 53.938763)" fill="none" stroke-linejoin="miter" d="M 60.92763 57.747867 L 116.428999 212.748357 " stroke="#000000" stroke-width="1" stroke-opacity="1" stroke-miterlimit="4"/><path stroke-linecap="butt" transform="matrix(0.844503, 0, 0, 0.844503, 43.765161, 53.938763)" fill="none" stroke-linejoin="miter" d="M 275.18077 59.750708 L 330.682139 214.751198 " stroke="#000000" stroke-width="1" stroke-opacity="1" stroke-miterlimit="4"/><path stroke-linecap="butt" transform="matrix(0.844503, 0, 0, 0.844503, 43.765161, 53.938763)" fill="none" stroke-linejoin="miter" d="M 280.430712 64.001542 L 221.427839 217.498745 " stroke="#000000" stroke-width="1" stroke-opacity="1" stroke-miterlimit="4"/></svg>