<svg xmlns="http://www.w3.org/2000/svg" xmlns:xlink="http://www.w3.org/1999/xlink" width="500" zoomAndPan="magnify" viewBox="0 0 375 374.999991" height="500" preserveAspectRatio="xMidYMid meet" version="1.0"><defs><clipPath id="d5d9aeb8de"><path d="M 46.5 37.5 L 328.5 37.5 L 328.5 337.5 L 46.5 337.5 Z M 46.5 37.5 " clip-rule="nonzero"/></clipPath></defs><path fill="#ff4f61" d="M 305.660156 282.699219 L 305.660156 282.039062 L 313.09375 282.039062 L 313.09375 160.824219 C 313.09375 150.03125 311.65625 139.242188 308.835938 128.871094 L 308.71875 128.390625 L 295.347656 128.390625 L 295.589844 129.289062 C 298.707031 139.480469 300.265625 150.152344 300.265625 160.882812 L 300.265625 241.992188 L 300.804688 242.113281 C 300.863281 242.113281 300.921875 242.113281 300.984375 242.171875 C 300.625 242.113281 300.265625 242.054688 299.84375 242.054688 C 299.484375 242.054688 299.125 242.113281 298.707031 242.171875 C 298.765625 242.171875 298.824219 242.113281 298.886719 242.113281 L 299.425781 241.992188 L 299.425781 160.824219 C 299.425781 149.910156 297.804688 139.179688 294.628906 128.871094 L 294.507812 128.390625 L 255.121094 128.390625 C 255.003906 128.390625 254.882812 128.332031 254.824219 128.210938 C 254.761719 128.089844 254.761719 127.96875 254.824219 127.851562 C 258.359375 121.734375 262.976562 120.777344 265.375 120.777344 C 265.492188 120.777344 265.554688 120.777344 265.671875 120.777344 L 266.273438 120.777344 L 266.332031 120.175781 C 266.574219 118.257812 267.59375 114.78125 272.269531 113.042969 C 273.167969 112.683594 274.125 112.503906 275.027344 112.503906 C 278.621094 112.503906 281.320312 115.023438 282.339844 116.101562 L 283.058594 116.820312 L 283.476562 115.921875 C 284.078125 114.542969 285.15625 112.5625 286.777344 110.765625 L 287.074219 110.40625 L 286.835938 109.984375 C 267.953125 74.4375 231.261719 52.375 191.097656 52.375 C 167.957031 52.375 145.894531 59.570312 127.25 73.238281 L 126.53125 73.777344 L 127.25 74.316406 C 127.070312 74.136719 126.832031 74.015625 126.652344 73.898438 C 126.230469 73.65625 125.753906 73.476562 125.332031 73.296875 C 125.394531 73.296875 125.453125 73.296875 125.511719 73.355469 L 125.871094 73.476562 L 126.171875 73.296875 C 145.117188 59.148438 167.597656 51.714844 191.21875 51.714844 C 231.382812 51.714844 268.132812 73.71875 287.253906 109.207031 L 287.675781 109.925781 L 288.335938 109.386719 C 290.3125 107.707031 292.589844 106.867188 295.046875 106.867188 C 295.527344 106.867188 296.007812 106.929688 296.546875 106.988281 C 297.625 107.109375 298.707031 107.40625 299.722656 107.886719 L 301.402344 108.605469 L 300.625 106.988281 C 290.671875 86.90625 275.445312 69.941406 256.441406 57.890625 C 236.898438 45.539062 214.355469 39.007812 191.21875 39.007812 C 124.074219 39.007812 69.402344 93.621094 69.402344 160.824219 L 69.402344 172.214844 L 69.878906 172.332031 C 72.21875 173.050781 74.015625 174.671875 74.855469 175.570312 L 75.574219 176.289062 L 75.996094 175.390625 C 76.835938 173.472656 78.753906 169.996094 81.929688 167.957031 L 82.230469 167.777344 L 82.230469 160.824219 C 82.230469 130.25 95.238281 100.875 117.960938 80.191406 L 118.199219 79.953125 L 118.140625 79.59375 C 118.140625 79.53125 118.140625 79.472656 118.140625 79.351562 C 118.199219 79.832031 118.257812 80.371094 118.4375 80.851562 C 118.558594 81.089844 118.617188 81.332031 118.796875 81.570312 C 118.796875 81.570312 118.796875 81.511719 118.738281 81.511719 L 118.320312 80.730469 L 117.660156 81.332031 C 95.539062 101.832031 82.890625 130.789062 82.890625 160.824219 L 82.890625 167.355469 L 83.789062 166.996094 C 84.925781 166.578125 86.125 166.339844 87.324219 166.339844 C 87.804688 166.339844 88.285156 166.398438 88.824219 166.457031 C 97.21875 167.597656 101.652344 176.949219 102.792969 179.828125 L 102.972656 180.246094 L 103.390625 180.246094 C 114.300781 181.027344 119.757812 187.019531 119.996094 187.261719 C 120.058594 187.378906 120.117188 187.5 120.058594 187.621094 C 119.996094 187.738281 119.878906 187.800781 119.757812 187.800781 L 82.890625 187.800781 L 82.890625 272.507812 L 96.855469 272.507812 L 96.855469 219.332031 C 96.855469 219.152344 97.035156 218.972656 97.21875 218.972656 L 132.707031 218.972656 L 132.707031 219.632812 L 249.785156 219.632812 L 249.785156 218.972656 L 285.277344 218.972656 C 285.457031 218.972656 285.636719 219.152344 285.636719 219.332031 L 285.636719 272.507812 L 299.605469 272.507812 L 299.605469 253.445312 L 299.066406 253.324219 C 299.003906 253.324219 298.945312 253.324219 298.886719 253.265625 C 299.246094 253.324219 299.605469 253.382812 300.023438 253.382812 C 300.382812 253.382812 300.742188 253.324219 301.164062 253.265625 C 301.101562 253.265625 301.042969 253.324219 300.984375 253.324219 L 300.445312 253.445312 L 300.445312 277.242188 L 267.773438 277.242188 L 267.773438 276.285156 L 246.128906 276.285156 L 246.128906 277.242188 L 136.484375 277.242188 L 136.484375 276.285156 L 114.84375 276.285156 L 114.84375 277.242188 L 82.230469 277.242188 L 82.230469 187.859375 L 69.402344 187.859375 L 69.402344 282.039062 L 76.835938 282.039062 L 76.835938 282.699219 L 114.902344 282.699219 L 114.902344 287.433594 L 69.402344 287.433594 L 69.402344 336.054688 L 313.09375 336.054688 L 313.09375 287.433594 L 267.59375 287.433594 L 267.59375 282.699219 Z M 305.660156 282.699219 " fill-opacity="1" fill-rule="nonzero"/><path fill="#f7c700" d="M 118.796875 79.292969 C 118.796875 79.171875 118.796875 79.050781 118.796875 78.992188 C 118.796875 78.574219 118.859375 78.152344 118.976562 77.671875 C 119.519531 75.574219 121.375 74.078125 123.535156 73.957031 C 123.714844 73.957031 123.773438 73.957031 123.894531 73.957031 C 124.3125 73.957031 124.734375 74.015625 125.152344 74.136719 C 125.632812 74.257812 126.050781 74.4375 126.472656 74.675781 C 128.03125 75.574219 128.929688 77.253906 128.929688 79.050781 C 128.929688 81.871094 126.652344 84.089844 123.894531 84.089844 C 121.796875 84.089844 119.878906 82.710938 119.15625 80.730469 C 118.917969 80.191406 118.796875 79.773438 118.796875 79.292969 Z M 249.128906 211.179688 L 133.304688 211.179688 L 133.304688 219.03125 L 249.128906 219.03125 Z M 298.765625 252.664062 C 299.183594 252.785156 299.542969 252.785156 299.90625 252.785156 C 300.265625 252.785156 300.683594 252.722656 301.042969 252.664062 C 303.320312 252.125 304.941406 250.085938 304.941406 247.75 C 304.941406 245.410156 303.320312 243.371094 301.042969 242.832031 C 300.625 242.714844 300.265625 242.714844 299.90625 242.714844 C 299.542969 242.714844 299.125 242.773438 298.765625 242.832031 C 296.488281 243.371094 294.867188 245.410156 294.867188 247.75 C 294.867188 250.085938 296.488281 252.066406 298.765625 252.664062 Z M 77.492188 282.039062 L 114.84375 282.039062 L 114.84375 277.964844 L 77.492188 277.964844 Z M 243.613281 151.230469 L 246.550781 139.660156 L 135.945312 139.660156 L 138.882812 151.230469 Z M 115.5625 290.371094 L 135.824219 290.371094 L 135.824219 277.003906 L 115.5625 277.003906 Z M 246.667969 290.371094 L 266.933594 290.371094 L 266.933594 277.003906 L 246.667969 277.003906 Z M 267.59375 282.039062 L 304.941406 282.039062 L 304.941406 277.964844 L 267.59375 277.964844 Z M 136.484375 282.039062 L 246.011719 282.039062 L 246.011719 277.964844 L 136.484375 277.964844 Z M 136.484375 282.039062 " fill-opacity="0.5" fill-rule="nonzero"/><path fill="#0aa374" d="M 137.441406 185.640625 C 137.441406 187.859375 135.644531 189.71875 133.367188 189.71875 C 131.148438 189.71875 129.289062 187.917969 129.289062 185.640625 C 129.289062 183.421875 131.089844 181.566406 133.367188 181.566406 C 135.585938 181.566406 137.441406 183.363281 137.441406 185.640625 Z M 130.609375 259.4375 C 130.007812 258.300781 129.289062 257.160156 128.511719 256.023438 C 127.851562 255.0625 126.832031 254.464844 125.632812 254.464844 C 124.433594 254.464844 123.414062 255.003906 122.753906 256.023438 C 122.035156 257.160156 121.316406 258.359375 120.71875 259.4375 C 120.296875 260.15625 119.9375 260.816406 119.636719 261.476562 C 118.019531 264.714844 117.238281 267.292969 117.417969 269.152344 C 117.480469 270.167969 117.597656 271.128906 117.78125 271.96875 C 117.839844 272.328125 117.898438 272.6875 118.019531 273.046875 C 118.140625 273.40625 118.199219 273.765625 118.320312 274.125 C 118.679688 275.144531 119.039062 275.746094 119.277344 276.042969 L 119.457031 276.34375 L 131.925781 276.34375 L 132.105469 276.042969 C 132.347656 275.746094 132.707031 275.144531 133.066406 274.125 C 133.1875 273.765625 133.304688 273.40625 133.367188 273.046875 C 133.425781 272.746094 133.546875 272.386719 133.605469 271.96875 C 133.785156 271.128906 133.90625 270.167969 133.964844 269.152344 C 134.085938 267.351562 133.304688 264.773438 131.746094 261.476562 C 131.328125 260.816406 130.96875 260.15625 130.609375 259.4375 Z M 262.796875 261.535156 C 262.4375 260.878906 262.078125 260.15625 261.71875 259.5 C 261.117188 258.359375 260.398438 257.21875 259.617188 256.082031 C 258.960938 255.121094 257.941406 254.523438 256.742188 254.523438 C 255.542969 254.523438 254.523438 255.0625 253.863281 256.082031 C 253.144531 257.21875 252.425781 258.417969 251.824219 259.5 C 251.464844 260.21875 251.046875 260.878906 250.746094 261.535156 C 249.128906 264.773438 248.347656 267.351562 248.527344 269.210938 C 248.589844 270.230469 248.707031 271.1875 248.886719 272.027344 C 248.949219 272.386719 249.007812 272.746094 249.128906 273.105469 C 249.246094 273.46875 249.308594 273.828125 249.425781 274.1875 C 249.785156 275.207031 250.148438 275.804688 250.386719 276.105469 L 250.566406 276.40625 L 263.035156 276.40625 L 263.214844 276.105469 C 263.457031 275.804688 263.816406 275.207031 264.175781 274.1875 C 264.292969 273.828125 264.414062 273.46875 264.472656 273.105469 C 264.535156 272.808594 264.65625 272.449219 264.714844 272.027344 C 264.894531 271.1875 265.015625 270.230469 265.074219 269.210938 C 265.195312 267.351562 264.414062 264.773438 262.796875 261.535156 Z M 262.796875 261.535156 " fill-opacity="1" fill-rule="nonzero"/><path fill="#f7c700" d="M 97.515625 261.117188 L 114.902344 261.117188 L 114.902344 272.507812 L 97.515625 272.507812 Z M 114.84375 240.195312 L 97.515625 240.195312 L 97.515625 260.457031 L 114.902344 260.457031 L 114.902344 240.195312 Z M 117.058594 271.789062 C 117 271.429688 116.941406 271.128906 116.878906 270.710938 L 115.5625 270.769531 L 115.5625 272.507812 L 117.179688 272.507812 Z M 135.824219 239.535156 L 135.824219 228.265625 L 115.5625 228.265625 L 115.5625 239.535156 Z M 156.746094 240.195312 L 136.484375 240.195312 L 136.484375 260.457031 L 156.746094 260.457031 Z M 136.484375 272.566406 L 156.804688 272.566406 L 156.746094 271.847656 L 156.746094 261.175781 L 136.484375 261.175781 Z M 231.980469 134.503906 L 150.453125 134.503906 L 150.453125 139 L 231.980469 139 Z M 249.488281 101.171875 C 251.707031 101.171875 253.5625 99.375 253.5625 97.097656 C 253.5625 94.878906 251.765625 93.019531 249.488281 93.019531 C 247.269531 93.019531 245.410156 94.820312 245.410156 97.097656 C 245.410156 99.375 247.269531 101.171875 249.488281 101.171875 Z M 114.84375 228.207031 L 97.515625 228.207031 L 97.515625 239.476562 L 114.902344 239.476562 L 114.902344 228.207031 Z M 178.628906 96.976562 L 170.953125 120.597656 L 191.035156 106.03125 C 191.097656 105.96875 191.15625 105.96875 191.21875 105.96875 C 191.277344 105.96875 191.335938 105.96875 191.398438 106.03125 L 211.480469 120.597656 L 203.867188 96.976562 C 203.804688 96.855469 203.867188 96.675781 203.984375 96.617188 L 224.070312 82.050781 L 199.25 82.050781 C 199.128906 82.050781 198.949219 81.929688 198.949219 81.808594 L 191.277344 58.191406 L 183.601562 81.808594 C 183.542969 81.929688 183.421875 82.050781 183.304688 82.050781 L 158.484375 82.050781 L 178.566406 96.617188 C 178.628906 96.738281 178.6875 96.855469 178.628906 96.976562 Z M 225.027344 271.488281 L 225.027344 231.203125 L 157.40625 231.203125 L 157.40625 271.488281 L 181.566406 271.488281 L 181.566406 247.75 C 181.566406 247.570312 181.746094 247.390625 181.925781 247.390625 L 200.628906 247.390625 C 200.808594 247.390625 200.988281 247.570312 200.988281 247.75 L 200.988281 271.488281 Z M 217.773438 159.085938 L 210.28125 159.085938 L 210.28125 198.652344 L 217.773438 198.652344 Z M 284.976562 228.207031 L 267.59375 228.207031 L 267.59375 239.476562 L 284.976562 239.476562 Z M 266.933594 239.535156 L 266.933594 228.265625 L 246.667969 228.265625 L 246.667969 239.535156 Z M 267.59375 272.566406 L 284.976562 272.566406 L 284.976562 261.175781 L 267.59375 261.175781 Z M 284.976562 240.195312 L 267.59375 240.195312 L 267.59375 260.457031 L 284.976562 260.457031 Z M 284.976562 219.691406 L 97.515625 219.691406 L 97.515625 227.546875 L 114.902344 227.546875 L 115.023438 227.484375 C 115.082031 227.484375 115.140625 227.425781 115.203125 227.425781 C 115.261719 227.425781 115.320312 227.425781 115.382812 227.484375 L 115.5 227.546875 L 135.824219 227.546875 L 135.945312 227.484375 C 136.003906 227.484375 136.0625 227.425781 136.125 227.425781 C 136.183594 227.425781 136.242188 227.425781 136.304688 227.484375 L 136.421875 227.546875 L 246.011719 227.546875 L 246.128906 227.484375 C 246.191406 227.484375 246.25 227.425781 246.308594 227.425781 C 246.371094 227.425781 246.429688 227.425781 246.488281 227.484375 L 246.609375 227.546875 L 266.933594 227.546875 L 267.050781 227.484375 C 267.113281 227.484375 267.171875 227.425781 267.230469 227.425781 C 267.292969 227.425781 267.351562 227.425781 267.410156 227.484375 L 267.53125 227.546875 L 284.917969 227.546875 L 284.917969 219.691406 Z M 246.011719 240.195312 L 225.746094 240.195312 L 225.746094 260.457031 L 246.011719 260.457031 Z M 248.167969 271.789062 C 248.109375 271.429688 248.046875 271.128906 247.988281 270.710938 L 246.667969 270.769531 L 246.667969 272.507812 L 248.289062 272.507812 Z M 246.011719 228.207031 L 136.484375 228.207031 L 136.484375 239.476562 L 156.746094 239.476562 L 156.746094 230.78125 C 156.746094 230.601562 156.925781 230.421875 157.105469 230.421875 L 225.386719 230.421875 C 225.566406 230.421875 225.746094 230.601562 225.746094 230.78125 L 225.746094 239.476562 L 246.011719 239.476562 Z M 225.6875 272.566406 L 246.011719 272.566406 L 246.011719 261.175781 L 225.746094 261.175781 L 225.746094 271.847656 Z M 265.433594 271.789062 L 265.3125 272.566406 L 266.933594 272.566406 L 266.933594 270.828125 L 265.613281 270.769531 C 265.554688 271.070312 265.492188 271.429688 265.433594 271.789062 Z M 136.484375 286.777344 L 246.011719 286.777344 L 246.011719 282.699219 L 136.484375 282.699219 Z M 248.589844 273.707031 L 248.46875 273.226562 L 134.027344 273.226562 L 133.90625 273.707031 C 133.726562 274.304688 133.546875 274.90625 133.304688 275.386719 L 132.886719 276.34375 L 136.183594 276.34375 C 136.363281 276.34375 136.484375 276.464844 136.542969 276.644531 L 136.601562 277.304688 L 246.070312 277.304688 L 246.128906 276.644531 C 246.128906 276.464844 246.308594 276.34375 246.488281 276.34375 L 249.785156 276.34375 L 249.367188 275.386719 C 248.949219 274.90625 248.769531 274.304688 248.589844 273.707031 Z M 135.824219 240.195312 L 115.5625 240.195312 L 115.5625 260.457031 L 119.457031 260.457031 L 119.636719 260.097656 C 120.417969 258.660156 121.257812 257.160156 122.277344 255.660156 C 123.054688 254.523438 124.3125 253.804688 125.691406 253.804688 C 127.070312 253.804688 128.390625 254.523438 129.109375 255.660156 C 130.070312 257.21875 130.96875 258.71875 131.746094 260.097656 L 131.925781 260.457031 L 135.824219 260.457031 Z M 135.824219 267.113281 L 135.824219 261.117188 L 132.285156 261.117188 L 132.707031 262.078125 C 133.605469 264.054688 134.207031 265.734375 134.445312 267.230469 Z M 246.667969 267.113281 L 247.988281 267.230469 C 248.226562 265.792969 248.828125 264.054688 249.726562 262.078125 L 250.148438 261.117188 L 246.609375 261.117188 L 246.609375 267.113281 Z M 134.324219 271.789062 L 134.207031 272.566406 L 135.824219 272.566406 L 135.824219 270.828125 L 134.503906 270.769531 C 134.386719 271.070312 134.386719 271.429688 134.324219 271.789062 Z M 267.59375 282.699219 L 267.59375 286.777344 L 312.734375 286.777344 L 312.734375 282.699219 Z M 266.933594 240.195312 L 246.667969 240.195312 L 246.667969 260.457031 L 250.566406 260.457031 L 250.746094 260.097656 C 251.527344 258.660156 252.363281 257.160156 253.382812 255.660156 C 254.164062 254.523438 255.421875 253.804688 256.800781 253.804688 C 258.179688 253.804688 259.5 254.523438 260.21875 255.660156 C 261.175781 257.21875 262.078125 258.660156 262.855469 260.097656 L 263.035156 260.457031 L 266.933594 260.457031 Z M 299.605469 277.304688 L 299.605469 273.226562 L 265.132812 273.226562 L 265.015625 273.707031 C 264.835938 274.304688 264.65625 274.84375 264.414062 275.386719 L 263.996094 276.34375 L 267.292969 276.34375 C 267.472656 276.34375 267.59375 276.464844 267.652344 276.644531 L 267.710938 277.304688 Z M 266.933594 267.113281 L 266.933594 261.117188 L 263.394531 261.117188 L 263.816406 262.078125 C 264.714844 264.054688 265.3125 265.734375 265.554688 267.230469 Z M 69.699219 286.777344 L 114.84375 286.777344 L 114.84375 282.699219 L 69.699219 282.699219 Z M 172.152344 159.085938 L 164.660156 159.085938 L 164.660156 198.652344 L 172.152344 198.652344 Z M 233.78125 202.007812 L 148.652344 202.007812 L 148.652344 151.890625 L 233.78125 151.890625 Z M 155.90625 199.371094 L 226.585938 199.371094 C 226.765625 199.371094 226.945312 199.191406 226.945312 199.011719 L 226.945312 158.722656 C 226.945312 158.542969 226.765625 158.363281 226.585938 158.363281 L 155.90625 158.363281 C 155.726562 158.363281 155.546875 158.542969 155.546875 158.722656 L 155.546875 199.011719 C 155.546875 199.191406 155.726562 199.371094 155.90625 199.371094 Z M 187.378906 159.085938 L 179.886719 159.085938 L 179.886719 198.652344 L 187.378906 198.652344 Z M 241.214844 202.667969 L 141.21875 202.667969 L 141.21875 210.519531 L 241.214844 210.519531 Z M 202.605469 159.085938 L 195.113281 159.085938 L 195.113281 198.652344 L 202.605469 198.652344 Z M 115.5625 267.113281 L 116.878906 267.230469 C 117.121094 265.792969 117.71875 264.054688 118.617188 262.078125 L 119.039062 261.117188 L 115.5 261.117188 L 115.5 267.113281 Z M 101.292969 156.6875 C 104.050781 156.6875 106.269531 154.46875 106.269531 151.710938 C 106.269531 148.953125 104.050781 146.734375 101.292969 146.734375 C 98.535156 146.734375 96.316406 148.953125 96.316406 151.710938 C 96.316406 154.46875 98.535156 156.6875 101.292969 156.6875 Z M 117.480469 273.707031 L 117.300781 273.226562 L 82.890625 273.226562 L 82.890625 277.304688 L 114.84375 277.304688 L 114.902344 276.644531 C 114.902344 276.464844 115.082031 276.34375 115.261719 276.34375 L 118.558594 276.34375 L 118.140625 275.386719 C 117.839844 274.90625 117.660156 274.304688 117.480469 273.707031 Z M 94.519531 214.898438 C 96.738281 214.898438 98.59375 213.097656 98.59375 210.820312 C 98.59375 208.601562 96.796875 206.742188 94.519531 206.742188 C 92.300781 206.742188 90.441406 208.542969 90.441406 210.820312 C 90.503906 213.097656 92.300781 214.898438 94.519531 214.898438 Z M 94.519531 214.898438 " fill-opacity="1" fill-rule="nonzero"/><path fill="#ffffff" d="M 123.714844 117.660156 C 123.714844 119.21875 122.457031 120.476562 120.898438 120.476562 C 119.339844 120.476562 118.078125 119.21875 118.078125 117.660156 C 118.078125 116.101562 119.339844 114.84375 120.898438 114.84375 C 122.394531 114.84375 123.714844 116.101562 123.714844 117.660156 Z M 116.640625 297.6875 C 115.980469 300.503906 114.78125 306.617188 113.042969 315.910156 C 112.203125 320.765625 111.84375 321.605469 111.363281 321.605469 L 111.125 321.605469 C 111.066406 321.605469 110.945312 321.546875 110.886719 321.484375 L 110.765625 321.367188 C 110.707031 321.304688 110.707031 321.246094 110.644531 321.1875 L 107.707031 306.617188 C 106.6875 300.683594 106.210938 298.464844 105.910156 297.625 L 105.789062 297.148438 L 98.894531 297.148438 L 99.074219 297.984375 C 100.273438 303.921875 102.132812 312.433594 104.589844 323.164062 C 105.429688 327.601562 105.847656 329.339844 106.089844 330.058594 L 106.269531 330.539062 L 116.460938 330.539062 L 116.640625 330.058594 C 116.820312 329.578125 117.121094 328.5 117.597656 326.222656 L 123.59375 297.148438 L 116.878906 297.148438 Z M 127.550781 297.148438 L 127.550781 330.476562 L 135.042969 330.476562 L 135.042969 297.148438 Z M 325.082031 126.472656 C 322.746094 124.734375 317.769531 121.734375 310.335938 121.375 C 310.214844 121.375 310.09375 121.257812 310.035156 121.136719 C 310.035156 121.078125 308.597656 117.179688 305.71875 113.523438 C 305.058594 112.683594 304.339844 111.90625 303.621094 111.246094 C 303.023438 110.707031 302.421875 110.226562 301.824219 109.804688 C 300.144531 108.605469 298.285156 107.886719 296.425781 107.648438 C 295.949219 107.589844 295.46875 107.527344 295.046875 107.527344 C 292.589844 107.527344 290.371094 108.425781 288.394531 110.164062 C 288.09375 110.40625 287.855469 110.644531 287.613281 110.945312 C 287.316406 111.246094 287.074219 111.542969 286.835938 111.84375 C 284.617188 114.542969 283.65625 117.660156 283.597656 117.78125 C 283.539062 117.898438 283.476562 118.019531 283.296875 118.019531 C 283.179688 118.019531 283.058594 117.960938 283 117.898438 C 282.878906 117.71875 279.761719 113.222656 275.265625 113.222656 C 274.425781 113.222656 273.527344 113.402344 272.6875 113.703125 C 266.8125 115.921875 267.113281 121.015625 267.171875 121.257812 C 267.171875 121.375 267.113281 121.496094 267.050781 121.554688 C 266.992188 121.617188 266.933594 121.617188 266.8125 121.617188 C 266.8125 121.617188 266.753906 121.617188 266.753906 121.617188 C 266.691406 121.617188 266.214844 121.496094 265.554688 121.496094 C 263.574219 121.496094 259.796875 122.15625 256.621094 126.652344 L 255.84375 127.730469 L 326.820312 127.730469 Z M 117.480469 185.941406 C 115.140625 184.203125 110.164062 181.207031 102.730469 180.84375 C 102.613281 180.84375 102.492188 180.726562 102.433594 180.605469 C 102.371094 180.484375 97.9375 168.316406 88.765625 167.117188 C 88.285156 167.058594 87.804688 166.996094 87.386719 166.996094 C 85.945312 166.996094 84.566406 167.296875 83.308594 167.957031 C 82.949219 168.136719 82.589844 168.316406 82.230469 168.554688 C 81.871094 168.796875 81.511719 169.035156 81.152344 169.335938 C 77.554688 172.273438 76.054688 177.007812 75.996094 177.25 C 75.933594 177.367188 75.875 177.488281 75.695312 177.488281 C 75.574219 177.488281 75.457031 177.429688 75.394531 177.367188 C 75.335938 177.25 73.417969 174.429688 70.359375 173.230469 C 70 173.113281 69.640625 172.992188 69.28125 172.871094 C 68.921875 172.8125 68.5 172.753906 68.140625 172.691406 C 67.960938 172.691406 67.78125 172.691406 67.601562 172.691406 C 66.703125 172.691406 65.863281 172.871094 65.023438 173.171875 C 59.148438 175.390625 59.449219 180.484375 59.507812 180.726562 C 59.507812 180.84375 59.449219 180.964844 59.390625 181.027344 C 59.328125 181.085938 59.269531 181.085938 59.148438 181.085938 C 59.148438 181.085938 59.089844 181.085938 59.089844 181.085938 C 59.03125 181.085938 58.550781 180.964844 57.890625 180.964844 C 55.910156 180.964844 52.136719 181.625 48.957031 186.121094 L 48.179688 187.199219 L 119.097656 187.199219 Z M 267.113281 175.03125 C 267.113281 177.847656 269.390625 180.066406 272.148438 180.066406 C 274.964844 180.066406 277.183594 177.789062 277.183594 175.03125 C 277.183594 172.214844 274.90625 169.996094 272.148438 169.996094 C 269.390625 169.933594 267.113281 172.214844 267.113281 175.03125 Z M 283.597656 297.148438 L 271.546875 297.148438 L 271.429688 297.625 C 271.25 298.164062 271.007812 299.363281 270.589844 301.941406 C 269.449219 308.117188 268.609375 312.792969 267.953125 315.910156 C 267.351562 318.847656 267.050781 320.585938 266.871094 320.828125 C 266.8125 320.828125 266.691406 320.828125 266.632812 320.828125 L 266.09375 320.828125 C 265.914062 320.828125 265.792969 320.707031 265.734375 320.527344 L 262.375 303.203125 C 261.777344 299.664062 261.355469 298.226562 261.175781 297.566406 L 260.996094 297.085938 L 249.605469 297.085938 L 249.488281 297.566406 C 249.488281 297.625 249.488281 297.625 249.425781 297.6875 L 249.425781 330.359375 L 256.203125 330.359375 L 256.203125 329.699219 C 256.203125 329.640625 256.203125 307.636719 256.203125 307.636719 C 256.203125 307.21875 256.441406 306.796875 257.339844 306.738281 C 257.402344 306.738281 257.460938 306.796875 257.519531 306.796875 L 258 307.21875 C 258.058594 307.277344 258.121094 307.339844 258.121094 307.398438 C 261.175781 323.285156 262.316406 328.378906 262.796875 329.878906 L 262.914062 330.359375 L 269.929688 330.359375 L 270.050781 329.820312 C 273.046875 313.992188 274.425781 307.277344 275.085938 306.796875 C 275.085938 306.796875 275.207031 306.796875 275.265625 306.796875 L 275.746094 306.796875 C 275.863281 306.796875 275.984375 306.859375 276.042969 306.917969 L 276.34375 307.398438 C 276.40625 307.457031 276.40625 307.519531 276.40625 307.578125 L 276.40625 328.980469 C 276.40625 329.339844 276.40625 329.699219 276.464844 329.9375 L 276.585938 330.476562 L 283.417969 330.476562 L 283.476562 329.878906 C 283.539062 329.519531 283.539062 329.097656 283.539062 328.558594 Z M 239.476562 300.5625 L 245.410156 330.476562 L 237.796875 330.476562 L 237.617188 330.117188 C 237.4375 329.699219 237.257812 329.039062 237.199219 328.082031 C 236.417969 323.042969 236.117188 322.746094 236 322.566406 C 235.9375 322.503906 235.820312 322.445312 235.757812 322.445312 L 229.285156 322.445312 C 229.164062 322.445312 229.042969 322.445312 229.042969 322.445312 C 228.566406 322.804688 227.90625 327.601562 227.546875 329.878906 L 227.484375 330.476562 L 219.691406 330.476562 L 219.871094 329.699219 C 221.96875 319.089844 223.53125 310.515625 224.546875 304.339844 L 226.046875 297.445312 L 226.46875 297.265625 L 238.695312 297.265625 L 238.875 297.625 C 239.175781 297.984375 239.355469 299.066406 239.476562 300.5625 Z M 233.960938 316.871094 C 234.019531 316.871094 234.140625 316.808594 234.199219 316.75 L 234.441406 316.511719 C 234.5 316.449219 234.558594 316.332031 234.558594 316.210938 L 232.402344 304.21875 C 232.402344 304.160156 232.34375 304.101562 232.28125 304.039062 L 232.160156 303.921875 C 232.101562 303.859375 231.980469 303.800781 231.921875 303.800781 L 231.800781 303.800781 C 231.203125 303.800781 230.84375 304.878906 230.421875 307.996094 C 229.585938 312.554688 229.164062 315.371094 229.164062 316.332031 C 229.164062 316.390625 229.222656 316.511719 229.285156 316.570312 L 229.40625 316.691406 C 229.464844 316.75 229.585938 316.808594 229.644531 316.808594 L 233.960938 316.808594 Z M 282.160156 205.605469 C 280.601562 205.605469 279.34375 206.863281 279.34375 208.421875 C 279.34375 209.980469 280.601562 211.238281 282.160156 211.238281 C 283.71875 211.238281 284.976562 209.980469 284.976562 208.421875 C 284.976562 206.863281 283.71875 205.605469 282.160156 205.605469 Z M 207.761719 316.03125 C 207.761719 316.089844 207.703125 316.210938 207.644531 316.269531 C 207.582031 316.332031 207.523438 316.390625 207.402344 316.390625 L 207.042969 316.390625 C 206.921875 316.390625 206.742188 316.269531 206.742188 316.152344 L 203.027344 305.058594 C 201.46875 300.144531 200.6875 298.226562 200.328125 297.507812 L 200.148438 297.148438 L 189.417969 297.148438 L 189.417969 330.476562 L 197.332031 330.476562 L 197.332031 311.414062 C 197.332031 311.234375 197.511719 311.054688 197.691406 311.054688 L 198.050781 311.054688 C 198.171875 311.054688 198.351562 311.175781 198.351562 311.292969 L 204.34375 329.097656 C 204.40625 329.519531 204.527344 329.820312 204.644531 330.058594 L 204.824219 330.417969 L 215.617188 330.417969 L 215.617188 297.085938 L 207.761719 297.085938 Z M 164.597656 296.785156 L 163.28125 296.785156 L 163.28125 297.566406 L 163.519531 297.566406 L 163.519531 297.6875 L 163.28125 297.6875 L 163.28125 297.746094 L 163.519531 297.746094 L 163.519531 302.902344 L 164.121094 302.960938 C 164.179688 302.960938 164.238281 302.960938 164.359375 302.960938 L 169.695312 302.960938 C 169.753906 302.960938 169.816406 302.960938 169.875 303.023438 L 170.535156 303.5 C 170.59375 303.5625 170.65625 303.679688 170.65625 303.800781 L 170.65625 329.640625 C 170.65625 329.699219 170.65625 329.757812 170.65625 329.820312 L 170.714844 330.417969 L 178.269531 330.417969 L 178.269531 304.160156 C 178.269531 303.441406 178.6875 303.023438 179.40625 303.023438 L 185.402344 303.023438 L 185.402344 297.148438 L 164.660156 297.148438 L 164.660156 296.785156 Z M 146.136719 322.625 L 146.136719 316.988281 C 146.136719 316.332031 146.496094 315.96875 147.15625 315.96875 L 156.984375 315.96875 L 156.984375 310.335938 L 146.792969 310.335938 C 146.675781 310.335938 146.613281 310.277344 146.554688 310.214844 L 146.195312 309.855469 C 146.136719 309.796875 146.074219 309.734375 146.074219 309.617188 L 146.074219 303.742188 C 146.074219 303.082031 146.433594 302.722656 147.09375 302.722656 L 158.785156 302.722656 L 158.785156 297.148438 L 139.121094 297.148438 L 139.0625 297.746094 C 139.0625 297.867188 139.0625 297.984375 139.0625 298.164062 L 139.0625 322.984375 C 139.0625 324.304688 139.421875 325.742188 140.140625 327.179688 L 140.140625 327.300781 C 141.160156 328.859375 142.65625 329.9375 144.636719 330.476562 L 159.265625 330.476562 L 159.265625 324.902344 L 149.3125 324.902344 C 147.273438 324.902344 146.136719 324.125 146.136719 322.625 Z M 146.136719 322.625 " fill-opacity="1" fill-rule="nonzero"/><g clip-path="url(#d5d9aeb8de)"><path fill="#252154" d="M 328.140625 127.371094 C 327.902344 127.132812 322.265625 120.898438 311.054688 120.117188 C 310.277344 118.199219 307.699219 112.503906 303.023438 109.027344 C 283.417969 66.941406 240.675781 37.628906 191.21875 37.628906 C 123.292969 37.628906 68.023438 92.902344 68.023438 160.824219 L 68.023438 171.375 C 66.882812 171.3125 65.683594 171.433594 64.484375 171.914062 C 59.449219 173.832031 58.371094 177.667969 58.128906 179.648438 C 55.792969 179.585938 50.578125 180.246094 46.679688 187.019531 C 46.5 187.320312 46.5 187.738281 46.679688 188.039062 C 46.859375 188.339844 47.21875 188.519531 47.578125 188.519531 L 68.023438 188.519531 L 68.023438 336.351562 C 68.023438 336.894531 68.5 337.371094 69.039062 337.371094 L 313.453125 337.371094 C 313.992188 337.371094 314.472656 336.894531 314.472656 336.351562 L 314.472656 160.824219 C 314.472656 149.851562 313.03125 139.179688 310.335938 129.050781 L 327.421875 129.050781 C 327.839844 129.050781 328.199219 128.808594 328.320312 128.449219 C 328.5 128.089844 328.441406 127.671875 328.140625 127.371094 Z M 58.910156 181.683594 C 59.210938 181.746094 59.570312 181.683594 59.808594 181.445312 C 60.046875 181.207031 60.167969 180.90625 60.167969 180.605469 C 60.167969 180.425781 59.867188 175.808594 65.265625 173.773438 C 66.28125 173.410156 67.183594 173.292969 68.082031 173.351562 C 68.441406 173.351562 68.742188 173.410156 69.101562 173.53125 C 69.460938 173.59375 69.761719 173.710938 70.121094 173.832031 C 72.9375 174.910156 74.734375 177.546875 74.855469 177.726562 C 75.09375 178.027344 75.457031 178.207031 75.816406 178.148438 C 76.175781 178.089844 76.535156 177.847656 76.65625 177.429688 C 76.773438 177.128906 78.214844 172.632812 81.628906 169.875 C 81.929688 169.636719 82.289062 169.394531 82.648438 169.15625 C 82.949219 168.976562 83.308594 168.734375 83.667969 168.617188 C 85.105469 167.898438 86.785156 167.597656 88.765625 167.835938 C 97.578125 169.035156 101.832031 180.785156 101.832031 180.90625 C 101.953125 181.265625 102.3125 181.566406 102.730469 181.566406 C 109.804688 181.925781 114.660156 184.683594 117.121094 186.480469 L 49.4375 186.480469 C 53.574219 180.726562 58.667969 181.683594 58.910156 181.683594 Z M 70.058594 160.824219 C 70.058594 94.039062 124.433594 39.664062 191.21875 39.664062 C 238.816406 39.664062 280.121094 67.242188 299.90625 107.289062 C 298.886719 106.867188 297.746094 106.507812 296.546875 106.390625 C 292.890625 105.910156 290.011719 107.167969 287.855469 108.96875 C 269.332031 74.554688 233 51.117188 191.21875 51.117188 C 166.699219 51.117188 144.035156 59.210938 125.753906 72.816406 C 125.152344 72.636719 124.492188 72.519531 123.773438 72.519531 C 120.238281 72.519531 117.359375 75.394531 117.359375 78.933594 C 117.359375 79.171875 117.359375 79.410156 117.417969 79.710938 C 95.417969 99.792969 81.511719 128.75 81.511719 160.824219 L 81.511719 167.417969 C 78.214844 169.515625 76.234375 173.050781 75.277344 175.152344 C 74.015625 173.773438 72.21875 172.394531 70 171.734375 L 70 160.824219 Z M 254.34375 128.570312 C 254.523438 128.871094 254.882812 129.050781 255.242188 129.050781 L 294.148438 129.050781 C 297.265625 139.121094 298.945312 149.792969 298.945312 160.824219 L 298.945312 241.394531 C 295.886719 241.875 293.550781 244.511719 293.550781 247.6875 C 293.550781 250.867188 295.886719 253.503906 298.945312 253.984375 L 298.945312 271.789062 L 286.355469 271.789062 L 286.355469 219.273438 C 286.355469 218.734375 285.875 218.253906 285.335938 218.253906 L 250.507812 218.253906 L 250.507812 210.878906 C 250.507812 210.339844 250.027344 209.859375 249.488281 209.859375 L 242.59375 209.859375 L 242.59375 202.367188 C 242.59375 201.828125 242.113281 201.347656 241.574219 201.347656 L 235.160156 201.347656 L 235.160156 152.550781 L 243.851562 152.550781 C 244.332031 152.550781 244.691406 152.25 244.8125 151.769531 L 247.929688 139.539062 C 247.988281 139.242188 247.929688 138.941406 247.75 138.640625 C 247.570312 138.402344 247.269531 138.222656 246.96875 138.222656 L 233.359375 138.222656 L 233.359375 134.144531 C 233.359375 133.605469 232.882812 133.125 232.34375 133.125 L 150.152344 133.125 C 149.613281 133.125 149.132812 133.605469 149.132812 134.144531 L 149.132812 138.28125 L 135.523438 138.28125 C 135.222656 138.28125 134.925781 138.402344 134.746094 138.703125 C 134.566406 138.941406 134.503906 139.242188 134.566406 139.601562 L 137.683594 151.832031 C 137.800781 152.25 138.222656 152.609375 138.640625 152.609375 L 147.335938 152.609375 L 147.335938 201.40625 L 140.917969 201.40625 C 140.378906 201.40625 139.902344 201.886719 139.902344 202.425781 L 139.902344 209.921875 L 133.007812 209.921875 C 132.46875 209.921875 131.988281 210.402344 131.988281 210.941406 L 131.988281 218.433594 L 97.15625 218.433594 C 96.617188 218.433594 96.136719 218.914062 96.136719 219.453125 L 96.136719 271.96875 L 83.546875 271.96875 L 83.546875 188.519531 L 119.757812 188.519531 C 120.175781 188.519531 120.535156 188.28125 120.65625 187.917969 C 120.835938 187.558594 120.777344 187.140625 120.476562 186.839844 C 120.238281 186.601562 114.601562 180.367188 103.390625 179.585938 C 102.3125 176.949219 97.757812 166.996094 88.882812 165.796875 C 86.84375 165.5 85.046875 165.796875 83.488281 166.398438 L 83.488281 160.824219 C 83.488281 129.648438 96.796875 101.53125 118.019531 81.871094 C 119.097656 83.96875 121.257812 85.347656 123.714844 85.347656 C 127.25 85.347656 130.128906 82.46875 130.128906 78.933594 C 130.128906 76.894531 129.167969 75.035156 127.671875 73.898438 C 145.476562 60.828125 167.417969 53.15625 191.15625 53.15625 C 232.34375 53.15625 268.191406 76.414062 286.296875 110.40625 C 284.617188 112.265625 283.539062 114.300781 282.878906 115.679688 C 280.660156 113.28125 276.644531 110.644531 272.027344 112.445312 C 266.992188 114.363281 265.914062 118.199219 265.671875 120.175781 C 263.335938 120.117188 258.121094 120.777344 254.222656 127.550781 C 254.164062 127.851562 254.164062 128.269531 254.34375 128.570312 Z M 77.132812 283.359375 L 114.183594 283.359375 L 114.183594 286.054688 L 70.359375 286.054688 L 70.359375 283.359375 Z M 82.53125 278.621094 L 114.183594 278.621094 L 114.183594 281.320312 L 78.152344 281.320312 L 78.152344 278.621094 Z M 266.273438 287.074219 L 266.273438 289.652344 L 247.328125 289.652344 L 247.328125 277.664062 L 266.214844 277.664062 L 266.214844 287.074219 Z M 135.105469 287.074219 L 135.105469 289.652344 L 116.160156 289.652344 L 116.160156 277.664062 L 135.042969 277.664062 L 135.042969 287.074219 Z M 133.007812 220.410156 L 284.316406 220.410156 L 284.316406 226.886719 L 267.773438 226.886719 C 267.652344 226.828125 267.472656 226.765625 267.292969 226.765625 C 267.113281 226.765625 266.992188 226.828125 266.8125 226.886719 L 246.789062 226.886719 C 246.667969 226.828125 246.488281 226.765625 246.308594 226.765625 C 246.128906 226.765625 246.011719 226.828125 245.832031 226.886719 L 136.601562 226.886719 C 136.484375 226.828125 136.304688 226.765625 136.125 226.765625 C 135.945312 226.765625 135.824219 226.828125 135.644531 226.886719 L 115.621094 226.886719 C 115.5 226.828125 115.320312 226.765625 115.140625 226.765625 C 114.960938 226.765625 114.84375 226.828125 114.660156 226.886719 L 98.175781 226.886719 L 98.175781 220.410156 Z M 140.917969 211.898438 L 248.46875 211.898438 L 248.46875 218.375 L 134.027344 218.375 L 134.027344 211.898438 Z M 231.324219 138.34375 L 151.171875 138.34375 L 151.171875 135.222656 L 231.382812 135.222656 L 231.382812 138.34375 Z M 231.324219 140.320312 L 245.652344 140.320312 L 243.074219 150.511719 L 139.421875 150.511719 L 136.84375 140.320312 Z M 149.371094 152.550781 L 233.179688 152.550781 L 233.179688 201.347656 L 149.371094 201.347656 Z M 233.121094 203.386719 L 240.554688 203.386719 L 240.554688 209.859375 L 141.9375 209.859375 L 141.9375 203.386719 Z M 266.09375 271.847656 C 266.152344 271.488281 266.214844 271.128906 266.273438 270.769531 L 266.273438 271.847656 Z M 263.816406 272.867188 C 263.695312 273.226562 263.636719 273.585938 263.515625 273.886719 C 263.214844 274.84375 262.855469 275.386719 262.675781 275.625 L 250.867188 275.625 C 250.6875 275.386719 250.328125 274.84375 250.027344 273.886719 C 249.90625 273.585938 249.847656 273.226562 249.726562 272.867188 C 249.667969 272.566406 249.605469 272.207031 249.488281 271.847656 C 249.367188 271.070312 249.246094 270.167969 249.128906 269.089844 C 249.007812 267.410156 249.785156 264.894531 251.285156 261.777344 C 251.585938 261.117188 251.945312 260.457031 252.363281 259.738281 C 252.964844 258.660156 253.625 257.519531 254.402344 256.320312 C 254.882812 255.542969 255.722656 255.0625 256.679688 255.0625 C 257.640625 255.0625 258.480469 255.542969 258.960938 256.320312 C 259.738281 257.519531 260.398438 258.660156 260.996094 259.738281 C 261.417969 260.457031 261.71875 261.117188 262.078125 261.777344 C 263.636719 264.835938 264.355469 267.351562 264.234375 269.089844 C 264.175781 270.167969 264.054688 271.070312 263.875 271.847656 C 263.996094 272.269531 263.933594 272.566406 263.816406 272.867188 Z M 118.917969 273.886719 C 118.796875 273.585938 118.738281 273.226562 118.617188 272.867188 C 118.558594 272.566406 118.5 272.207031 118.378906 271.847656 C 118.257812 271.070312 118.140625 270.167969 118.019531 269.089844 C 117.898438 267.410156 118.679688 264.894531 120.175781 261.777344 C 120.476562 261.117188 120.835938 260.457031 121.257812 259.738281 C 121.855469 258.660156 122.515625 257.519531 123.292969 256.320312 C 123.773438 255.542969 124.613281 255.0625 125.574219 255.0625 C 126.53125 255.0625 127.371094 255.542969 127.851562 256.320312 C 128.628906 257.519531 129.289062 258.660156 129.890625 259.738281 C 130.308594 260.457031 130.609375 261.117188 130.96875 261.777344 C 132.527344 264.835938 133.246094 267.351562 133.125 269.089844 C 133.066406 270.167969 132.945312 271.070312 132.765625 271.847656 C 132.707031 272.207031 132.648438 272.566406 132.527344 272.867188 C 132.40625 273.226562 132.347656 273.585938 132.226562 273.886719 C 131.925781 274.84375 131.566406 275.386719 131.386719 275.625 L 119.578125 275.625 C 119.578125 275.386719 119.277344 274.84375 118.917969 273.886719 Z M 266.273438 267.113281 C 265.972656 265.433594 265.3125 263.636719 264.472656 261.777344 L 266.273438 261.777344 Z M 245.289062 281.320312 L 137.144531 281.320312 L 137.144531 278.621094 L 245.289062 278.621094 Z M 116.21875 240.855469 L 135.164062 240.855469 L 135.164062 259.796875 L 132.285156 259.796875 C 131.449219 258.238281 130.488281 256.679688 129.648438 255.300781 C 128.75 253.921875 127.25 253.144531 125.632812 253.144531 C 124.015625 253.144531 122.515625 253.984375 121.617188 255.300781 C 120.71875 256.679688 119.816406 258.179688 118.976562 259.796875 L 116.160156 259.796875 L 116.160156 240.855469 Z M 137.144531 228.925781 L 245.289062 228.925781 L 245.289062 238.875 L 226.40625 238.875 L 226.40625 230.84375 C 226.40625 230.304688 225.925781 229.824219 225.386719 229.824219 L 157.105469 229.824219 C 156.566406 229.824219 156.085938 230.304688 156.085938 230.84375 L 156.085938 238.875 L 137.144531 238.875 Z M 284.316406 238.816406 L 268.3125 238.816406 L 268.3125 228.863281 L 284.316406 228.863281 Z M 266.273438 238.816406 L 247.328125 238.816406 L 247.328125 228.863281 L 266.273438 228.863281 Z M 245.289062 271.847656 L 226.40625 271.847656 C 226.40625 271.847656 226.40625 271.789062 226.40625 271.789062 L 226.40625 261.835938 L 245.351562 261.835938 L 245.351562 271.847656 Z M 224.367188 239.835938 L 224.367188 270.769531 L 201.589844 270.769531 L 201.589844 247.6875 C 201.589844 247.148438 201.109375 246.667969 200.570312 246.667969 L 181.863281 246.667969 C 181.324219 246.667969 180.84375 247.148438 180.84375 247.6875 L 180.84375 270.769531 L 158.066406 270.769531 L 158.066406 231.863281 L 224.367188 231.863281 Z M 156.085938 271.847656 L 137.144531 271.847656 L 137.144531 261.835938 L 156.085938 261.835938 Z M 135.105469 267.113281 C 134.804688 265.433594 134.144531 263.636719 133.304688 261.835938 L 135.105469 261.835938 Z M 135.105469 270.769531 L 135.105469 271.847656 L 134.925781 271.847656 C 135.042969 271.546875 135.105469 271.1875 135.105469 270.769531 Z M 247.328125 271.847656 L 247.328125 270.769531 C 247.390625 271.128906 247.449219 271.488281 247.507812 271.847656 Z M 247.328125 267.113281 L 247.328125 261.835938 L 249.128906 261.835938 C 248.289062 263.636719 247.628906 265.492188 247.328125 267.113281 Z M 245.289062 259.796875 L 226.40625 259.796875 L 226.40625 240.855469 L 245.351562 240.855469 L 245.351562 259.796875 Z M 156.085938 240.855469 L 156.085938 259.796875 L 137.144531 259.796875 L 137.144531 240.855469 Z M 137.144531 276.585938 C 137.144531 276.042969 136.664062 275.625 136.125 275.625 L 133.84375 275.625 C 134.085938 275.144531 134.265625 274.605469 134.503906 273.886719 L 247.929688 273.886719 C 248.109375 274.605469 248.347656 275.144531 248.589844 275.625 L 246.308594 275.625 C 245.769531 275.625 245.351562 276.042969 245.289062 276.585938 Z M 263.457031 259.796875 C 262.617188 258.179688 261.65625 256.679688 260.816406 255.300781 C 259.917969 253.921875 258.417969 253.144531 256.800781 253.144531 C 255.183594 253.144531 253.683594 253.984375 252.785156 255.300781 C 251.886719 256.679688 250.984375 258.179688 250.148438 259.796875 L 247.328125 259.796875 L 247.328125 240.855469 L 266.273438 240.855469 L 266.273438 259.796875 Z M 268.3125 240.855469 L 284.316406 240.855469 L 284.316406 259.796875 L 268.3125 259.796875 Z M 135.105469 228.925781 L 135.105469 238.875 L 116.160156 238.875 L 116.160156 228.925781 Z M 114.183594 238.816406 L 98.175781 238.816406 L 98.175781 228.863281 L 114.183594 228.863281 Z M 98.175781 240.855469 L 114.183594 240.855469 L 114.183594 259.796875 L 98.175781 259.796875 Z M 118.019531 261.835938 C 117.179688 263.695312 116.519531 265.492188 116.21875 267.171875 L 116.21875 261.835938 Z M 116.21875 270.769531 C 116.28125 271.128906 116.339844 271.488281 116.402344 271.847656 L 116.21875 271.847656 Z M 268.3125 261.835938 L 284.316406 261.835938 L 284.316406 271.90625 L 268.3125 271.90625 Z M 98.175781 261.835938 L 114.183594 261.835938 L 114.183594 271.90625 L 98.175781 271.90625 Z M 137.144531 283.359375 L 245.289062 283.359375 L 245.289062 286.054688 L 137.144531 286.054688 Z M 83.546875 273.886719 L 116.820312 273.886719 C 117 274.605469 117.238281 275.144531 117.480469 275.625 L 115.203125 275.625 C 114.660156 275.625 114.242188 276.042969 114.183594 276.585938 L 83.546875 276.585938 Z M 312.074219 286.054688 L 268.3125 286.054688 L 268.3125 283.359375 L 312.132812 283.359375 L 312.132812 286.054688 Z M 304.339844 281.320312 L 268.3125 281.320312 L 268.3125 278.621094 L 304.339844 278.621094 Z M 268.3125 276.585938 C 268.3125 276.042969 267.832031 275.625 267.292969 275.625 L 265.015625 275.625 C 265.253906 275.144531 265.433594 274.605469 265.671875 273.886719 L 298.945312 273.886719 L 298.945312 276.585938 Z M 298.945312 252.003906 C 297.027344 251.527344 295.589844 249.785156 295.589844 247.75 C 295.589844 245.710938 297.027344 243.972656 298.945312 243.492188 C 299.246094 243.433594 299.605469 243.371094 299.964844 243.371094 C 300.324219 243.371094 300.625 243.433594 300.984375 243.492188 C 302.902344 243.972656 304.339844 245.710938 304.339844 247.75 C 304.339844 249.785156 302.902344 251.527344 300.984375 252.003906 C 300.683594 252.066406 300.324219 252.125 299.964844 252.125 C 299.605469 252.125 299.246094 252.066406 298.945312 252.003906 Z M 123.835938 74.554688 C 124.195312 74.554688 124.613281 74.617188 124.914062 74.675781 C 125.332031 74.796875 125.691406 74.914062 126.050781 75.15625 C 127.3125 75.933594 128.210938 77.3125 128.210938 78.933594 C 128.210938 81.332031 126.230469 83.308594 123.835938 83.308594 C 121.914062 83.308594 120.296875 82.109375 119.699219 80.371094 C 119.578125 80.011719 119.457031 79.59375 119.457031 79.171875 C 119.457031 79.050781 119.457031 78.992188 119.457031 78.871094 C 119.457031 78.453125 119.519531 78.09375 119.636719 77.734375 C 120.117188 75.933594 121.675781 74.617188 123.59375 74.496094 C 123.59375 74.554688 123.714844 74.554688 123.835938 74.554688 Z M 70.058594 288.09375 L 114.183594 288.09375 L 114.183594 290.671875 C 114.183594 291.210938 114.660156 291.691406 115.203125 291.691406 L 136.125 291.691406 C 136.664062 291.691406 137.144531 291.210938 137.144531 290.671875 L 137.144531 288.09375 L 245.289062 288.09375 L 245.289062 290.671875 C 245.289062 291.210938 245.769531 291.691406 246.308594 291.691406 L 267.230469 291.691406 C 267.773438 291.691406 268.25 291.210938 268.25 290.671875 L 268.25 288.09375 L 312.375 288.09375 L 312.375 335.335938 L 70.058594 335.335938 Z M 81.511719 188.519531 L 81.511719 276.585938 L 77.132812 276.585938 C 76.59375 276.585938 76.113281 277.0625 76.113281 277.601562 L 76.113281 281.320312 L 70.058594 281.320312 L 70.058594 188.519531 Z M 312.433594 281.320312 L 306.378906 281.320312 L 306.378906 277.601562 C 306.378906 277.0625 305.898438 276.585938 305.359375 276.585938 L 300.984375 276.585938 L 300.984375 254.042969 C 304.039062 253.5625 306.378906 250.925781 306.378906 247.75 C 306.378906 244.570312 304.039062 241.933594 300.984375 241.453125 L 300.984375 160.824219 C 300.984375 149.792969 299.363281 139.121094 296.308594 129.050781 L 308.238281 129.050781 C 310.996094 139.179688 312.492188 149.851562 312.492188 160.824219 L 312.492188 281.320312 Z M 308.65625 127.070312 L 257.101562 127.070312 C 261.238281 121.316406 266.332031 122.277344 266.574219 122.277344 C 266.871094 122.335938 267.230469 122.277344 267.472656 122.035156 C 267.710938 121.796875 267.832031 121.496094 267.832031 121.195312 C 267.832031 121.015625 267.53125 116.402344 272.925781 114.363281 C 278.324219 112.324219 282.339844 118.019531 282.460938 118.257812 C 282.699219 118.558594 283.058594 118.738281 283.417969 118.679688 C 283.777344 118.617188 284.136719 118.378906 284.257812 117.960938 C 284.316406 117.71875 285.277344 114.84375 287.375 112.265625 C 287.613281 111.964844 287.855469 111.664062 288.09375 111.425781 C 288.335938 111.183594 288.574219 110.945312 288.8125 110.707031 C 290.671875 109.027344 293.128906 107.886719 296.308594 108.308594 C 298.226562 108.546875 299.90625 109.328125 301.402344 110.34375 C 302.003906 110.765625 302.601562 111.246094 303.140625 111.722656 C 303.921875 112.445312 304.582031 113.164062 305.179688 113.941406 C 307.996094 117.417969 309.375 121.257812 309.375 121.316406 C 309.496094 121.675781 309.855469 121.976562 310.277344 121.976562 C 317.347656 122.335938 322.207031 125.09375 324.664062 126.890625 L 308.65625 126.890625 Z M 124.3125 296.066406 C 124.132812 295.886719 123.894531 295.769531 123.59375 295.769531 L 116.878906 295.769531 C 116.820312 295.769531 116.699219 295.769531 116.640625 295.828125 L 116.160156 295.949219 C 115.800781 296.066406 115.5 296.308594 115.441406 296.667969 C 114.84375 299.125 113.582031 305.480469 111.664062 315.671875 C 111.542969 316.449219 111.425781 317.167969 111.304688 317.710938 L 109.027344 306.378906 C 107.226562 295.769531 106.929688 295.769531 105.847656 295.769531 L 98.894531 295.769531 C 98.65625 295.769531 98.355469 295.886719 98.175781 296.066406 L 97.816406 296.425781 C 97.636719 296.605469 97.515625 296.847656 97.515625 297.148438 L 97.515625 297.265625 C 97.515625 297.328125 97.515625 297.386719 97.515625 297.445312 C 98.714844 303.441406 100.632812 312.195312 103.152344 323.40625 C 104.710938 331.796875 105.128906 331.796875 106.089844 331.796875 L 116.402344 331.796875 C 117.359375 331.796875 117.78125 331.136719 118.738281 326.460938 L 124.734375 297.328125 C 124.734375 297.265625 124.734375 297.207031 124.734375 297.148438 L 124.734375 297.027344 C 124.734375 296.785156 124.613281 296.488281 124.433594 296.308594 Z M 106.6875 329.757812 C 106.449219 329.097656 106.03125 327.421875 105.191406 322.984375 C 102.730469 312.253906 100.875 303.742188 99.675781 297.804688 L 105.308594 297.804688 C 105.550781 298.585938 106.089844 300.742188 107.046875 306.738281 L 109.984375 321.367188 C 110.046875 321.546875 110.105469 321.726562 110.285156 321.90625 L 110.40625 322.027344 C 110.585938 322.207031 110.824219 322.324219 111.125 322.324219 L 111.363281 322.324219 C 112.382812 322.324219 112.804688 321.605469 113.703125 316.03125 C 115.441406 306.738281 116.640625 300.625 117.300781 297.804688 L 122.695312 297.804688 L 116.878906 326.042969 C 116.402344 328.320312 116.101562 329.339844 115.980469 329.757812 Z M 135.285156 295.828125 C 135.164062 295.769531 135.042969 295.769531 134.925781 295.769531 L 127.671875 295.769531 C 127.550781 295.769531 127.429688 295.769531 127.3125 295.828125 C 126.890625 295.949219 126.171875 296.425781 126.171875 297.804688 L 126.171875 329.757812 C 126.171875 331.136719 126.890625 331.558594 127.3125 331.738281 C 127.429688 331.796875 127.550781 331.796875 127.671875 331.796875 L 135.042969 331.796875 C 135.285156 331.796875 135.585938 331.675781 135.765625 331.496094 L 136.125 331.136719 C 136.304688 330.957031 136.421875 330.71875 136.421875 330.417969 L 136.421875 297.804688 C 136.363281 296.425781 135.703125 296.007812 135.285156 295.828125 Z M 128.210938 329.757812 L 128.210938 297.804688 L 134.324219 297.804688 L 134.324219 329.757812 Z M 158.964844 323.523438 L 149.433594 323.523438 C 147.515625 323.523438 147.515625 322.863281 147.515625 322.625 L 147.515625 317.289062 L 156.6875 317.289062 C 157.707031 317.289062 158.363281 316.628906 158.363281 315.609375 L 158.363281 310.753906 C 158.363281 309.914062 157.824219 308.957031 156.328125 308.957031 L 147.453125 308.957031 L 147.453125 304.039062 L 158.363281 304.039062 C 159.445312 304.039062 160.164062 303.320312 160.164062 302.242188 L 160.164062 297.148438 C 160.164062 296.90625 160.042969 296.605469 159.863281 296.425781 L 159.503906 296.066406 C 159.324219 295.886719 159.085938 295.769531 158.785156 295.769531 L 139.179688 295.769531 C 138.523438 295.769531 137.742188 296.1875 137.742188 298.164062 L 137.742188 322.984375 C 137.742188 324.542969 138.160156 326.222656 139 327.839844 C 139 327.902344 139.0625 327.902344 139.0625 327.960938 C 140.261719 329.878906 142.117188 331.136719 144.515625 331.796875 C 144.578125 331.796875 144.695312 331.855469 144.757812 331.855469 L 159.382812 331.855469 C 159.625 331.855469 159.921875 331.738281 160.101562 331.558594 L 160.464844 331.199219 C 160.644531 331.019531 160.761719 330.777344 160.761719 330.476562 L 160.761719 325.382812 C 160.761719 324.242188 160.042969 323.523438 158.964844 323.523438 Z M 139.78125 298.164062 C 139.78125 298.046875 139.78125 297.925781 139.78125 297.804688 L 158.125 297.804688 L 158.125 302.003906 L 147.15625 302.003906 C 146.136719 302.003906 145.476562 302.660156 145.476562 303.679688 L 145.476562 309.554688 C 145.476562 309.796875 145.59375 310.09375 145.777344 310.277344 L 146.136719 310.636719 C 146.316406 310.816406 146.554688 310.933594 146.855469 310.933594 L 156.386719 310.933594 L 156.386719 315.25 L 147.214844 315.25 C 146.195312 315.25 145.535156 315.910156 145.535156 316.929688 L 145.535156 322.566406 C 145.535156 323.644531 146.074219 325.503906 149.492188 325.503906 L 158.785156 325.503906 L 158.785156 329.699219 L 144.996094 329.699219 C 143.136719 329.160156 141.820312 328.261719 140.859375 326.820312 C 140.199219 325.441406 139.839844 324.125 139.839844 322.925781 L 139.839844 298.164062 Z M 186.0625 296.066406 C 185.882812 295.886719 185.640625 295.769531 185.34375 295.769531 L 163.941406 295.769531 C 163.21875 295.769531 162.382812 296.1875 162.140625 297.386719 C 162.140625 297.445312 162.140625 297.507812 162.140625 297.566406 L 162.140625 302.84375 C 162.140625 303.382812 162.441406 304.28125 164.300781 304.402344 L 169.277344 304.402344 L 169.277344 329.699219 C 169.277344 331.257812 170.234375 331.855469 171.074219 331.855469 L 177.847656 331.855469 C 178.628906 331.855469 179.527344 331.378906 179.527344 329.9375 L 179.527344 304.460938 L 184.863281 304.460938 C 185.640625 304.460938 186.480469 303.980469 186.660156 302.660156 C 186.660156 302.601562 186.660156 302.601562 186.660156 302.542969 L 186.660156 297.207031 C 186.660156 296.90625 186.539062 296.667969 186.359375 296.488281 Z M 184.621094 302.363281 L 179.285156 302.363281 C 178.207031 302.363281 177.488281 303.082031 177.488281 304.160156 L 177.488281 329.757812 L 171.253906 329.757812 C 171.253906 329.699219 171.253906 329.699219 171.253906 329.640625 L 171.253906 303.800781 C 171.253906 303.5 171.074219 303.140625 170.835938 302.960938 L 170.175781 302.480469 C 169.996094 302.363281 169.816406 302.300781 169.574219 302.300781 L 164.238281 302.300781 C 164.179688 302.300781 164.121094 302.300781 164.058594 302.300781 L 164.058594 297.804688 L 184.5625 297.804688 Z M 163.941406 297.746094 L 163.941406 297.804688 Z M 163.941406 297.566406 L 163.941406 296.785156 Z M 216.335938 296.066406 C 216.15625 295.886719 215.914062 295.769531 215.617188 295.769531 L 207.882812 295.769531 C 206.804688 295.769531 206.503906 297.027344 206.445312 297.445312 C 206.445312 297.507812 206.445312 297.625 206.445312 297.6875 L 206.445312 310.875 L 204.34375 304.640625 C 201.828125 296.667969 201.347656 296.308594 200.929688 296.007812 C 200.75 295.886719 200.507812 295.769531 200.328125 295.769531 L 189.476562 295.769531 C 189.238281 295.769531 188.9375 295.886719 188.757812 296.066406 L 188.398438 296.425781 C 188.21875 296.605469 188.097656 296.847656 188.097656 297.148438 L 188.097656 330.476562 C 188.097656 330.71875 188.21875 331.019531 188.398438 331.199219 L 188.757812 331.558594 C 188.9375 331.738281 189.179688 331.855469 189.476562 331.855469 L 197.03125 331.855469 C 197.8125 331.855469 198.710938 331.378906 198.710938 329.9375 L 198.710938 316.628906 L 203.085938 329.519531 C 203.445312 331.4375 204.40625 331.855469 205.066406 331.855469 L 215.617188 331.855469 C 215.855469 331.855469 216.15625 331.738281 216.335938 331.558594 L 216.695312 331.199219 C 216.875 331.019531 216.996094 330.777344 216.996094 330.476562 L 216.996094 297.148438 C 216.996094 296.90625 216.875 296.605469 216.695312 296.425781 Z M 214.898438 329.757812 L 205.246094 329.757812 C 205.183594 329.640625 205.125 329.398438 205.003906 328.980469 C 205.003906 328.917969 205.003906 328.859375 204.945312 328.859375 L 198.949219 311.054688 C 198.832031 310.636719 198.410156 310.394531 197.992188 310.394531 L 197.632812 310.394531 C 197.09375 310.394531 196.613281 310.875 196.613281 311.414062 L 196.613281 329.757812 L 190.019531 329.757812 L 190.019531 297.804688 L 199.667969 297.804688 C 199.96875 298.40625 200.6875 300.203125 202.308594 305.300781 L 206.023438 316.390625 C 206.144531 316.808594 206.5625 317.050781 206.984375 317.050781 L 207.34375 317.050781 C 207.582031 317.050781 207.882812 316.929688 208.0625 316.75 C 208.242188 316.570312 208.363281 316.332031 208.363281 316.03125 L 208.363281 297.804688 L 214.835938 297.804688 L 214.835938 329.757812 Z M 240.855469 300.382812 C 240.675781 298.105469 240.253906 295.769531 238.515625 295.769531 L 226.648438 295.769531 C 226.105469 295.769531 225.566406 296.007812 225.027344 296.488281 C 224.90625 296.605469 224.789062 296.785156 224.726562 297.027344 L 223.230469 303.980469 C 222.152344 310.394531 220.53125 319.207031 218.375 330.238281 C 218.3125 330.597656 218.433594 330.898438 218.671875 331.136719 L 219.03125 331.496094 C 219.214844 331.675781 219.453125 331.796875 219.753906 331.796875 L 227.484375 331.796875 C 227.726562 331.796875 228.027344 331.675781 228.207031 331.496094 L 228.683594 331.019531 C 228.863281 330.839844 228.925781 330.65625 228.984375 330.417969 C 229.585938 326.101562 229.945312 324.363281 230.125 323.703125 L 235.28125 323.703125 C 235.398438 324.242188 235.699219 325.503906 236.117188 328.140625 C 236.179688 329.160156 236.417969 331.738281 238.277344 331.738281 L 245.289062 331.738281 C 246.128906 331.738281 246.789062 331.257812 246.96875 330.539062 C 247.03125 330.417969 247.03125 330.238281 246.96875 330.117188 Z M 238.21875 329.757812 C 238.15625 329.578125 237.976562 329.097656 237.855469 327.960938 C 237.855469 327.960938 237.855469 327.902344 237.855469 327.902344 C 237.078125 322.683594 236.71875 322.324219 236.476562 322.027344 C 236.296875 321.785156 236 321.664062 235.699219 321.664062 L 229.222656 321.664062 C 228.207031 321.664062 227.90625 321.664062 226.828125 329.699219 L 220.410156 329.699219 C 222.511719 319.089844 224.070312 310.515625 225.089844 304.28125 L 226.46875 297.746094 L 238.15625 297.746094 C 238.277344 297.984375 238.578125 298.644531 238.695312 300.5625 C 238.695312 300.625 238.695312 300.625 238.695312 300.683594 L 244.453125 329.699219 L 238.21875 329.699219 Z M 233 304.101562 C 232.941406 303.921875 232.882812 303.742188 232.703125 303.5625 L 232.582031 303.441406 C 232.402344 303.261719 232.160156 303.140625 231.863281 303.140625 L 231.800781 303.140625 C 230.601562 303.140625 230.183594 304.582031 229.765625 307.9375 C 228.925781 312.613281 228.503906 315.371094 228.503906 316.390625 C 228.503906 316.628906 228.625 316.929688 228.804688 317.109375 L 228.925781 317.230469 C 229.105469 317.410156 229.34375 317.53125 229.644531 317.53125 L 233.960938 317.53125 C 234.199219 317.53125 234.5 317.410156 234.679688 317.230469 L 234.917969 316.988281 C 235.160156 316.75 235.28125 316.449219 235.21875 316.089844 Z M 230.601562 315.492188 C 230.722656 314.410156 231.023438 312.3125 231.742188 308.417969 L 233 315.492188 Z M 284.917969 297.148438 C 284.917969 296.90625 284.796875 296.605469 284.617188 296.425781 L 284.257812 296.066406 C 284.078125 295.886719 283.839844 295.769531 283.539062 295.769531 L 271.429688 295.769531 C 270.410156 295.769531 270.050781 296.488281 269.210938 301.703125 C 267.773438 309.734375 266.871094 314.292969 266.332031 316.871094 L 263.695312 302.960938 C 262.554688 296.605469 262.136719 296.246094 261.71875 295.949219 C 261.535156 295.828125 261.355469 295.769531 261.117188 295.769531 L 250.148438 295.769531 C 249.066406 295.769531 248.289062 296.488281 248.109375 297.6875 C 248.109375 297.746094 248.109375 297.746094 248.109375 297.804688 L 248.109375 329.757812 C 248.109375 331.136719 248.828125 331.558594 249.246094 331.738281 C 249.367188 331.796875 249.488281 331.796875 249.605469 331.796875 L 256.023438 331.796875 C 256.441406 331.796875 256.800781 331.675781 257.101562 331.378906 C 257.640625 330.839844 257.699219 330.058594 257.640625 329.519531 L 257.640625 311.714844 C 261.535156 331.796875 261.777344 331.796875 262.855469 331.796875 L 269.988281 331.796875 C 270.167969 331.796875 270.410156 331.738281 270.53125 331.617188 L 270.890625 331.378906 C 271.128906 331.199219 271.25 331.019531 271.308594 330.71875 C 273.226562 320.765625 274.367188 315.070312 275.085938 311.835938 L 275.085938 328.980469 C 275.085938 331.4375 276.222656 331.796875 276.882812 331.796875 L 283.117188 331.796875 C 283.179688 331.796875 283.238281 331.796875 283.359375 331.796875 C 283.65625 331.796875 283.957031 331.675781 284.199219 331.496094 C 284.796875 331.019531 284.976562 330.179688 284.917969 328.5 Z M 282.878906 329.757812 L 277.183594 329.757812 C 277.125 329.640625 277.125 329.339844 277.125 328.980469 L 277.125 307.699219 C 277.125 307.519531 277.0625 307.277344 276.945312 307.097656 L 276.644531 306.617188 C 276.464844 306.320312 276.164062 306.199219 275.804688 306.199219 L 275.324219 306.199219 C 274.1875 306.199219 273.945312 306.199219 269.449219 329.757812 L 263.515625 329.757812 C 263.09375 328.320312 261.957031 323.40625 258.898438 307.339844 C 258.839844 307.097656 258.71875 306.917969 258.597656 306.796875 L 258.121094 306.378906 C 257.941406 306.199219 257.640625 306.078125 257.402344 306.140625 C 256.140625 306.199219 255.660156 306.917969 255.601562 307.699219 L 255.601562 329.578125 C 255.601562 329.640625 255.601562 329.699219 255.601562 329.757812 L 250.148438 329.757812 L 250.148438 297.867188 C 250.148438 297.804688 250.148438 297.804688 250.148438 297.804688 L 260.519531 297.804688 C 260.699219 298.34375 261.117188 299.785156 261.71875 303.320312 L 265.015625 320.648438 C 265.132812 321.125 265.492188 321.484375 266.03125 321.484375 L 266.574219 321.484375 C 267.53125 321.484375 267.53125 321.484375 268.609375 316.03125 C 269.210938 312.972656 270.109375 308.238281 271.25 302.0625 C 271.667969 299.484375 271.90625 298.34375 272.089844 297.804688 L 282.9375 297.804688 L 282.9375 328.558594 C 282.9375 329.160156 282.878906 329.519531 282.878906 329.757812 Z M 226.585938 157.707031 L 155.847656 157.707031 C 155.308594 157.707031 154.828125 158.183594 154.828125 158.722656 L 154.828125 199.011719 C 154.828125 199.550781 155.308594 200.03125 155.847656 200.03125 L 226.585938 200.03125 C 227.125 200.03125 227.605469 199.550781 227.605469 199.011719 L 227.605469 158.722656 C 227.605469 158.183594 227.125 157.707031 226.585938 157.707031 Z M 201.886719 197.992188 L 195.773438 197.992188 L 195.773438 159.742188 L 201.886719 159.742188 Z M 186.660156 197.992188 L 180.546875 197.992188 L 180.546875 159.742188 L 186.660156 159.742188 Z M 171.492188 197.992188 L 165.378906 197.992188 L 165.378906 159.742188 L 171.492188 159.742188 Z M 211 197.992188 L 211 159.742188 L 217.113281 159.742188 L 217.113281 197.992188 Z M 225.089844 80.671875 L 199.96875 80.671875 L 192.175781 56.8125 C 192.054688 56.390625 191.636719 56.09375 191.21875 56.09375 C 190.796875 56.09375 190.378906 56.390625 190.257812 56.8125 L 182.523438 80.671875 L 157.40625 80.671875 C 156.984375 80.671875 156.566406 80.96875 156.445312 81.390625 C 156.328125 81.808594 156.445312 82.289062 156.804688 82.53125 L 177.128906 97.277344 L 169.394531 121.136719 C 169.277344 121.554688 169.394531 122.035156 169.753906 122.277344 C 170.113281 122.515625 170.59375 122.515625 170.953125 122.277344 L 191.277344 107.527344 L 211.597656 122.277344 C 211.78125 122.394531 211.960938 122.457031 212.199219 122.457031 C 212.4375 122.457031 212.617188 122.394531 212.796875 122.277344 C 213.15625 122.035156 213.277344 121.554688 213.15625 121.136719 L 205.425781 97.277344 L 225.746094 82.53125 C 226.105469 82.289062 226.226562 81.808594 226.105469 81.390625 C 225.925781 80.96875 225.507812 80.671875 225.089844 80.671875 Z M 203.566406 96.078125 C 203.207031 96.316406 203.085938 96.796875 203.207031 97.21875 L 210.21875 118.859375 L 191.816406 105.488281 C 191.636719 105.371094 191.457031 105.308594 191.21875 105.308594 C 190.976562 105.308594 190.796875 105.371094 190.617188 105.488281 L 172.214844 118.859375 L 179.226562 97.21875 C 179.347656 96.796875 179.226562 96.316406 178.867188 96.078125 L 160.464844 82.710938 L 183.242188 82.710938 C 183.664062 82.710938 184.082031 82.410156 184.203125 81.988281 L 191.21875 60.40625 L 198.289062 81.988281 C 198.410156 82.410156 198.832031 82.710938 199.25 82.710938 L 221.96875 82.710938 Z M 272.207031 181.445312 C 275.746094 181.445312 278.621094 178.566406 278.621094 175.03125 C 278.621094 171.492188 275.746094 168.617188 272.207031 168.617188 C 268.671875 168.617188 265.792969 171.492188 265.792969 175.03125 C 265.792969 178.566406 268.671875 181.445312 272.207031 181.445312 Z M 272.207031 170.65625 C 274.605469 170.65625 276.585938 172.632812 276.585938 175.03125 C 276.585938 177.429688 274.605469 179.40625 272.207031 179.40625 C 269.808594 179.40625 267.832031 177.429688 267.832031 175.03125 C 267.832031 172.632812 269.808594 170.65625 272.207031 170.65625 Z M 282.160156 212.617188 C 284.4375 212.617188 286.355469 210.761719 286.355469 208.421875 C 286.355469 206.085938 284.496094 204.226562 282.160156 204.226562 C 279.882812 204.226562 277.964844 206.085938 277.964844 208.421875 C 277.964844 210.761719 279.882812 212.617188 282.160156 212.617188 Z M 282.160156 206.265625 C 283.359375 206.265625 284.316406 207.222656 284.316406 208.421875 C 284.316406 209.621094 283.359375 210.582031 282.160156 210.582031 C 280.960938 210.582031 280 209.621094 280 208.421875 C 280 207.222656 280.960938 206.265625 282.160156 206.265625 Z M 120.835938 113.464844 C 118.558594 113.464844 116.640625 115.320312 116.640625 117.660156 C 116.640625 119.9375 118.5 121.855469 120.835938 121.855469 C 123.113281 121.855469 125.03125 119.996094 125.03125 117.660156 C 125.03125 115.382812 123.175781 113.464844 120.835938 113.464844 Z M 120.835938 119.816406 C 119.636719 119.816406 118.679688 118.859375 118.679688 117.660156 C 118.679688 116.460938 119.636719 115.5 120.835938 115.5 C 122.035156 115.5 122.996094 116.460938 122.996094 117.660156 C 122.996094 118.859375 122.035156 119.816406 120.835938 119.816406 Z M 120.835938 119.816406 " fill-opacity="1" fill-rule="nonzero"/></g></svg>