<svg xmlns="http://www.w3.org/2000/svg" xmlns:xlink="http://www.w3.org/1999/xlink" width="500" zoomAndPan="magnify" viewBox="0 0 375 374.999991" height="500" preserveAspectRatio="xMidYMid meet" version="1.0"><defs><clipPath id="327dac523a"><path d="M 118 263 L 257 263 L 257 318 L 118 318 Z M 118 263 " clip-rule="nonzero"/></clipPath></defs><path fill="#ff4f61" d="M 187.335938 85.136719 C 185.503906 85.136719 184.019531 83.640625 184.019531 81.808594 L 184.019531 60.425781 C 184.019531 58.589844 185.503906 57.097656 187.335938 57.097656 C 189.171875 57.097656 190.652344 58.589844 190.652344 60.425781 L 190.652344 81.808594 C 190.652344 83.640625 189.171875 85.136719 187.335938 85.136719 " fill-opacity="1" fill-rule="nonzero"/><path fill="#ff4f61" d="M 158.035156 90.296875 C 156.679688 90.296875 155.40625 89.457031 154.917969 88.113281 L 147.046875 66.484375 C 146.425781 64.769531 147.3125 62.863281 149.03125 62.234375 C 150.757812 61.605469 152.664062 62.503906 153.28125 64.21875 L 161.152344 85.847656 C 161.785156 87.566406 160.894531 89.46875 159.179688 90.097656 C 158.804688 90.226562 158.421875 90.296875 158.035156 90.296875 " fill-opacity="1" fill-rule="nonzero"/><path fill="#ff4f61" d="M 130.613281 103.507812 C 129.667969 103.507812 128.722656 103.097656 128.066406 102.316406 L 113.667969 85.160156 C 112.488281 83.757812 112.675781 81.65625 114.078125 80.476562 C 115.480469 79.296875 117.582031 79.484375 118.761719 80.886719 L 133.160156 98.050781 C 134.328125 99.453125 134.152344 101.542969 132.738281 102.722656 C 132.121094 103.25 131.363281 103.507812 130.613281 103.507812 " fill-opacity="1" fill-rule="nonzero"/><path fill="#ff4f61" d="M 113.097656 121.757812 C 112.523438 121.757812 111.953125 121.621094 111.4375 121.316406 L 91.058594 109.554688 C 89.472656 108.632812 88.921875 106.613281 89.84375 105.023438 C 90.753906 103.4375 92.789062 102.886719 94.375 103.808594 L 114.753906 115.570312 C 116.34375 116.480469 116.890625 118.511719 115.96875 120.101562 C 115.351562 121.164062 114.242188 121.757812 113.097656 121.757812 " fill-opacity="1" fill-rule="nonzero"/><path fill="#ff4f61" d="M 264.847656 126.289062 C 263.691406 126.289062 262.582031 125.695312 261.960938 124.632812 C 261.050781 123.042969 261.589844 121.011719 263.175781 120.089844 L 280.625 110.023438 C 282.210938 109.113281 284.246094 109.648438 285.15625 111.238281 C 286.078125 112.824219 285.527344 114.859375 283.941406 115.78125 L 266.503906 125.847656 C 265.980469 126.152344 265.40625 126.289062 264.847656 126.289062 " fill-opacity="1" fill-rule="nonzero"/><path fill="#ff4f61" d="M 245.824219 105.398438 C 245.074219 105.398438 244.316406 105.140625 243.695312 104.617188 C 242.296875 103.4375 242.109375 101.34375 243.289062 99.945312 L 257.242188 83.3125 C 258.421875 81.914062 260.515625 81.726562 261.914062 82.90625 C 263.316406 84.074219 263.503906 86.175781 262.324219 87.578125 L 248.367188 104.207031 C 247.714844 104.988281 246.769531 105.398438 245.824219 105.398438 " fill-opacity="1" fill-rule="nonzero"/><path fill="#ff4f61" d="M 216.625 91.96875 C 216.253906 91.96875 215.867188 91.898438 215.492188 91.769531 C 213.765625 91.136719 212.878906 89.234375 213.507812 87.507812 L 221.332031 66.019531 C 221.964844 64.289062 223.855469 63.402344 225.582031 64.03125 C 227.3125 64.652344 228.199219 66.566406 227.570312 68.285156 L 219.746094 89.785156 C 219.253906 91.125 217.980469 91.96875 216.625 91.96875 " fill-opacity="1" fill-rule="nonzero"/><path fill="#ff4f61" d="M 250.503906 135.015625 C 249.675781 135.015625 248.847656 134.699219 248.203125 134.082031 C 231.808594 118.324219 210.25 109.648438 187.5 109.648438 C 164.75 109.648438 143.191406 118.324219 126.796875 134.082031 C 125.476562 135.351562 123.375 135.316406 122.101562 133.988281 C 120.839844 132.667969 120.875 130.566406 122.195312 129.292969 C 139.828125 112.347656 163.023438 103.003906 187.5 103.003906 C 211.976562 103.003906 235.171875 112.347656 252.804688 129.292969 C 254.125 130.566406 254.160156 132.667969 252.898438 133.988281 C 252.246094 134.664062 251.371094 135.015625 250.503906 135.015625 " fill-opacity="1" fill-rule="nonzero"/><g clip-path="url(#327dac523a)"><path fill="#ff4f61" d="M 187.265625 318.203125 C 137.199219 318.203125 118.175781 303.6875 118.175781 303.6875 C 121.820312 292.664062 128.023438 277.082031 135.800781 270.085938 C 153.714844 253.972656 162.53125 271.546875 187.265625 271.546875 C 212.011719 271.546875 220.832031 253.972656 238.746094 270.085938 C 246.863281 277.386719 253.261719 294.015625 256.824219 305.089844 C 256.824219 305.089844 243.964844 318.203125 187.265625 318.203125 " fill-opacity="1" fill-rule="nonzero"/></g><path fill="#ff4f61" d="M 229.613281 199.597656 C 229.613281 229.015625 210.660156 252.851562 187.265625 252.851562 C 163.886719 252.851562 144.933594 229.015625 144.933594 199.597656 C 144.933594 170.191406 163.886719 146.34375 187.265625 146.34375 C 210.660156 146.34375 229.613281 170.191406 229.613281 199.597656 " fill-opacity="1" fill-rule="nonzero"/><path fill="#ff4f61" d="M 124.132812 182.769531 C 124.132812 205.496094 109.476562 223.921875 91.410156 223.921875 C 73.34375 223.921875 58.699219 205.496094 58.699219 182.769531 C 58.699219 160.042969 73.34375 141.613281 91.410156 141.613281 C 109.476562 141.613281 124.132812 160.042969 124.132812 182.769531 " fill-opacity="1" fill-rule="nonzero"/><path fill="#ff4f61" d="M 315.953125 182.769531 C 315.953125 205.496094 301.308594 223.921875 283.238281 223.921875 C 265.160156 223.921875 250.515625 205.496094 250.515625 182.769531 C 250.515625 160.042969 265.160156 141.613281 283.238281 141.613281 C 301.308594 141.613281 315.953125 160.042969 315.953125 182.769531 " fill-opacity="1" fill-rule="nonzero"/><path fill="#ff4f61" d="M 323.015625 237.234375 C 309.167969 224.785156 302.347656 238.367188 283.238281 238.367188 C 264.121094 238.367188 257.300781 224.785156 243.464844 237.234375 C 240.125 240.238281 233.851562 246.625 230.277344 252.429688 C 235.859375 253.726562 241.222656 256.691406 246.511719 261.445312 C 249.640625 264.261719 252.640625 268.078125 255.539062 272.855469 C 300.035156 283.703125 336.984375 264.285156 336.984375 264.285156 C 334.226562 255.722656 329.289062 242.878906 323.015625 237.234375 " fill-opacity="1" fill-rule="nonzero"/><path fill="#ff4f61" d="M 128.03125 261.445312 C 133.3125 256.703125 138.648438 253.738281 144.207031 252.441406 C 140.492188 246.566406 134.492188 240.214844 131.1875 237.234375 C 117.347656 224.785156 110.527344 238.367188 91.410156 238.367188 C 72.292969 238.367188 65.484375 224.785156 51.632812 237.234375 C 45.617188 242.644531 40.828125 254.671875 38.015625 263.199219 C 38.015625 263.199219 74.207031 281.460938 119.261719 272.433594 C 122.078125 267.855469 125.007812 264.179688 128.03125 261.445312 " fill-opacity="1" fill-rule="nonzero"/></svg>